<svg width="27" height="27" viewBox="0 0 27 27" fill="none" xmlns="http://www.w3.org/2000/svg">
<path d="M1.48743 27C1.28188 26.9996 1.07865 26.9565 0.890674 26.8733C0.702694 26.7902 0.534073 26.6688 0.395533 26.5169C0.254488 26.3663 0.146861 26.1876 0.0797108 25.9924C0.0125603 25.7973 -0.0125971 25.5902 0.0058878 25.3847L0.368865 21.3923L17.137 4.62558L22.3772 9.86574L5.61352 26.631L1.62225 26.9941C1.57743 26.9982 1.53244 27.0002 1.48743 27ZM23.4231 8.818L18.1844 3.57784L21.3268 0.434635C21.4643 0.296849 21.6277 0.187542 21.8076 0.112964C21.9875 0.0383863 22.1802 0 22.3749 0C22.5696 0 22.7624 0.0383863 22.9423 0.112964C23.1221 0.187542 23.2855 0.296849 23.4231 0.434635L26.5655 3.57784C26.7032 3.71547 26.8125 3.87892 26.8871 4.05882C26.9616 4.23873 27 4.43157 27 4.62632C27 4.82107 26.9616 5.01391 26.8871 5.19381C26.8125 5.37372 26.7032 5.53716 26.5655 5.67479L23.4246 8.81652L23.4231 8.818Z" fill="#4E87F8"/>
</svg>
